# xmcd
# 
# Track frame offsets:
#     150
#     15125
#     32090
#     49330
#     74007
#     93707
#     108687
#     124915
#     149755
#     164690
#     182019
# 
# Disc length: 2632
# 
# Revision: 0
# Processed by: cddbd v1.5.2PL0 Copyright (c) Steve Scherf et al.
# Submitted via: BonkEnc v1.0.15
# 
DISCID=a70a460b
DTITLE=North Mississippi Allstars - 51 Phantom
DYEAR=0
DGENRE=
TTITLE0=51 Phantom
TTITLE1=Snakes In My Bushes
TTITLE2=Sugartown
TTITLE3=Lord Have Mercy
TTITLE4=Storm
TTITLE5=Freedom Highway
TTITLE6=Circle In The Sky
TTITLE7=Ship
TTITLE8=Leavin'
TTITLE9=Up Over Yonder
TTITLE10=Mud
EXTD=
EXTT0=
EXTT1=
EXTT2=
EXTT3=
EXTT4=
EXTT5=
EXTT6=
EXTT7=
EXTT8=
EXTT9=
EXTT10=
PLAYORDER=
